<?xml version="1.0" standalone="no"?>
<!DOCTYPE svg PUBLIC "-//W3C//DTD SVG 1.1//EN" "http://www.w3.org/Graphics/SVG/1.1/DTD/svg11.dtd" >
<svg xmlns="http://www.w3.org/2000/svg" xmlns:xlink="http://www.w3.org/1999/xlink" version="1.1">
<metadata>
Created by FontForge 20170731 at Wed Jul 20 16:01:44 2016
 By Aleksey,,,
Made with Scanahand. Copyright (c) Darrell Flood 2016. All Rights Reserved.
</metadata>
<defs>
<font id="PrehistoricCaveman" horiz-adv-x="4364" >
  <font-face 
    font-family="Prehistoric Caveman"
    font-weight="400"
    font-stretch="normal"
    units-per-em="2048"
    panose-1="3 0 6 0 0 0 0 0 0 0"
    ascent="1638"
    descent="-410"
    cap-height="2870"
    bbox="-22 -1190 8741 3067"
    underline-thickness="150"
    underline-position="-442"
    unicode-range="U+0020-20AC"
  />
<missing-glyph horiz-adv-x="2123" 
d="M60 0v2754h1983v-2754h-1983zM140 80h1823v2594h-1823v-2594z" />
    <glyph glyph-name=".notdef" horiz-adv-x="2123" 
d="M60 0v2754h1983v-2754h-1983zM140 80h1823v2594h-1823v-2594z" />
    <glyph glyph-name=".null" horiz-adv-x="0" 
 />
    <glyph glyph-name=".null" horiz-adv-x="0" 
 />
    <glyph glyph-name="nonmarkingreturn" horiz-adv-x="550" 
 />
    <glyph glyph-name="space" unicode=" " horiz-adv-x="1638" 
 />
    <glyph glyph-name="space" unicode="&#xa0;" horiz-adv-x="1638" 
 />
    <glyph glyph-name="exclam" unicode="!" horiz-adv-x="2368" 
d="M954 2684h957q280 -681 280 -864q-63 -375 -350 -1283q0 -164 -140 -164q-102 -46 -887 -233q-396 983 -396 1283v140q56 911 256 911q0 22 280 210zM1491 140q234 -29 234 -303q134 -311 163 -537q-781 -327 -1050 -327v23l-24 47l-303 -70q-227 540 -280 817
q838 350 1260 350z" />
    <glyph glyph-name="quotedbl" unicode="&#x22;" horiz-adv-x="3332" 
d="M2876 2847q210 -647 233 -793q-163 -442 -233 -841q-732 -303 -794 -303v23q-35 140 -186 140q-374 988 -374 1191v140q0 78 770 303q490 140 584 140zM1125 2754q134 0 281 -537q23 0 93 -210l-47 -654q24 -45 24 -70q0 -102 -747 -350h-70q0 84 -234 350
q-210 495 -303 887q233 43 233 187q0 187 187 187q513 210 583 210z" />
    <glyph glyph-name="numbersign" unicode="#" horiz-adv-x="4308" 
d="M2179 2730q257 -684 257 -770v-47l-47 -70q29 0 817 -70q134 771 304 771q0 29 163 140q55 -17 280 -677q-47 -77 -47 -140q210 0 210 -210q164 -416 164 -584q-560 -64 -560 -163q0 -42 -140 -560h140q293 0 303 -93l163 -607v-47q-653 -148 -653 -303q0 -210 -140 -210
q-673 -117 -770 -117q-171 513 -257 513l-793 94q-70 -131 -70 -187l23 -140q-414 -238 -864 -350q-256 620 -256 653q68 139 163 281q-303 60 -303 303q-53 0 -94 280v23q724 248 724 350l116 257q-315 -23 -466 -23h-140q-47 0 -257 630q623 327 1074 327h23
q106 536 303 536q548 210 630 210zM2016 1050q0 -28 -93 -490q667 -210 816 -210q164 614 234 747z" />
    <glyph glyph-name="dollar" unicode="$" horiz-adv-x="4413" 
d="M2152 2870q537 -38 537 -256q0 -187 233 -187q63 -39 701 -210q23 -497 23 -584q-631 -233 -770 -233q-47 198 -47 233q-45 -23 -70 -23q-910 -47 -910 -140l-373 -280q46 -95 46 -140q1276 210 1447 210h630q230 47 257 47h23q444 -1136 444 -1587q-616 -327 -840 -327
l-374 -47l93 -210l-1143 -303l-93 467q-1203 -117 -1261 -117q-443 401 -443 467q-140 371 -140 420q715 303 793 303q231 -350 281 -350q931 304 1190 304q361 93 746 93h24v93l-24 47q-55 -23 -676 -117l-1891 47q-105 181 -420 1050q561 560 630 560q476 140 701 234
q-70 200 -70 280q655 256 746 256z" />
    <glyph glyph-name="percent" unicode="%" horiz-adv-x="3771" 
d="M1028 2614h117q130 -204 304 -841v-23q0 -266 -631 -373q-170 -94 -303 -94h-47q-88 0 -373 817q0 217 933 514zM3362 2427q70 -85 280 -794q0 -34 -630 -630q-287 -408 -1307 -1377q-61 -21 -513 -396l-677 -234h-70l-257 747q0 124 280 397q559 567 981 1097
q396 370 396 630q0 205 560 303q576 257 957 257zM3245 327h117q280 -724 280 -771h-23l23 -46v-117q0 -66 -793 -327v24l-140 -47q-136 0 -374 817v23q0 155 910 444z" />
    <glyph glyph-name="ampersand" unicode="&#x26;" horiz-adv-x="4400" 
d="M3077 2870q420 -967 420 -1377q0 -65 -630 -536q-185 -210 -257 -210v-24q0 -22 210 -163q390 280 1144 490h163q210 -700 210 -770q0 -23 -630 -350q-70 -47 -70 -93l187 -537q-592 -257 -724 -257q-472 327 -490 327q-933 -374 -1050 -444q-1253 358 -1377 420l-93 841
q475 311 583 420q-303 599 -303 1050v560q1128 420 1984 560zM1140 1703q0 -326 280 -326q0 -53 280 -94l584 514q-24 207 -24 257h-23q-928 -281 -1097 -351zM1000 0l374 -397q755 265 770 304v23q-47 0 -584 490q-552 -389 -560 -420z" />
    <glyph glyph-name="quotesingle" unicode="'" horiz-adv-x="1947" 
d="M1334 2707h117q70 0 256 -840v-24q-146 -544 -210 -560q-93 0 -116 -140q-87 -46 -747 -280q-170 173 -467 1167v94q239 310 630 420q472 163 537 163z" />
    <glyph glyph-name="parenleft" unicode="(" horiz-adv-x="3200" 
d="M2452 2894h280q117 -158 257 -794q0 -28 -257 -116q-674 -281 -840 -281q-467 -716 -467 -1423q125 -155 677 -280h23q123 23 234 23h23l210 -793q0 -79 -1003 -257q-231 0 -701 373q-466 288 -466 514q-257 543 -257 793q210 712 443 1331q0 299 794 560
q796 350 1050 350z" />
    <glyph glyph-name="parenright" unicode=")" horiz-adv-x="2868" 
d="M1119 2870h24q817 -74 817 -350q676 -1688 676 -2123q0 -265 -233 -537q-103 -187 -653 -514q-915 -443 -1167 -443q-304 630 -327 770q120 97 513 304q467 223 467 816v187q-70 446 -70 607v70q-134 70 -583 140q-210 513 -280 793q714 280 816 280z" />
    <glyph glyph-name="asterisk" unicode="*" horiz-adv-x="4636" 
d="M2439 2940q227 0 1540 -373q93 0 233 -560q31 0 117 -327q-47 -846 -47 -1190q0 -80 -163 -117q0 -38 163 -70l234 -747q-724 -256 -794 -256v23q-76 280 -256 280v-23q46 -177 46 -350q-763 -187 -817 -187v23q-314 414 -326 467q-47 -7 -47 -47v-140q0 -210 -210 -210
q-381 -140 -537 -140v24l-233 560l140 303h-23q-44 0 -654 -210q-327 649 -327 1004q0 407 -210 1166q-23 0 -23 47q400 365 863 537q418 296 1261 513h70zM1295 1610l257 -980l630 233l-163 1121q-677 -374 -724 -374zM2859 1797q70 -334 140 -817q513 128 513 210
q0 124 70 373q-42 0 -723 234zM2602 607q-140 -271 -140 -397q571 163 630 163v47q-40 0 -490 187z" />
    <glyph glyph-name="plus" unicode="+" horiz-adv-x="3962" 
d="M2706 2684q46 -80 256 -771q-23 -255 -23 -443v-93h23q570 23 631 23q233 -676 233 -793v-47q-906 -280 -1074 -280q0 -275 -233 -794q0 -99 -747 -350q-178 0 -303 490q-81 122 -210 537v140h-444q-97 0 -256 -23q-134 0 -257 467q-117 225 -140 373q549 303 1144 397
q-24 45 -24 70q24 540 24 560q507 327 1400 537z" />
    <glyph glyph-name="comma" unicode="," horiz-adv-x="1784" 
d="M1074 653l47 -23l140 23h47q84 0 280 -793v-23q-210 -747 -280 -747h-841q-186 466 -186 513q93 187 93 257t-140 350q65 257 327 257q0 23 513 186z" />
    <glyph glyph-name="hyphen" unicode="-" horiz-adv-x="3227" 
d="M2840 1703q38 0 257 -840q-105 -303 -304 -303q-555 -350 -1306 -350q-348 0 -864 -140q-274 159 -327 467q-163 417 -163 466q117 79 117 140q0 111 1050 420q126 -23 210 -23q549 93 1330 163z" />
    <glyph glyph-name="period" unicode="." horiz-adv-x="1818" 
d="M1203 653h47q184 -251 374 -933v-47q-87 -93 -981 -373h-70q-75 7 -373 747q23 45 23 70l-23 46q0 83 350 280q581 210 653 210z" />
    <glyph glyph-name="slash" unicode="/" horiz-adv-x="4491" 
d="M2674 2917q0 -20 280 -233q156 70 653 186q101 -303 140 -303q59 0 607 70q-58 -537 -233 -537q-5 -13 -187 -116l163 -491v-23l-490 -513q-23 -934 -46 -934q-141 71 -631 374h-23q-443 -412 -443 -771q-16 -140 -94 -140l-396 164q-813 -560 -981 -560l-583 -140
q-210 471 -210 560q257 168 257 303q194 94 536 420v24l-140 420v23q724 192 724 420q58 0 117 233q-514 1016 -514 1051h23l1121 -164l116 234q-163 335 -163 396q340 47 397 47z" />
    <glyph glyph-name="zero" unicode="0" horiz-adv-x="3925" 
d="M1510 2684h1284q258 0 560 -514q397 -993 397 -1213v-24q0 -1423 -327 -1423q-224 -176 -910 -420h-1587q-599 623 -794 1540l-23 117q187 1003 303 1330q217 227 1097 607zM2047 1680l-677 -467q-70 -407 -116 -886q82 -234 373 -234l630 -46h47q46 0 140 700
q23 0 93 396v210q-365 327 -490 327z" />
    <glyph glyph-name="one" unicode="1" horiz-adv-x="2651" 
d="M2034 2824q210 0 210 -257q163 -432 163 -537q-133 -587 -210 -1540q-23 0 -47 -280l117 -23h47q52 0 93 23q177 0 233 -420q117 -266 117 -397v-23l-770 -234q-617 70 -817 70l-653 -70q-280 704 -280 771q93 70 816 326q0 144 47 980h-23q-457 -186 -584 -186h-23
l-280 793q102 205 537 490q513 334 1307 514z" />
    <glyph glyph-name="two" unicode="2" horiz-adv-x="3776" 
d="M2981 2847q257 0 421 -700q74 0 140 -630q0 -418 -537 -887q-264 -163 -304 -163v-24h257q584 0 584 -163q233 -685 233 -747v-210q0 -210 -770 -373q-162 -70 -304 -70q-48 0 -443 210q-217 70 -747 140q-52 0 -93 -24q-41 24 -93 24q-248 0 -724 -140h-47l-140 210
l-233 653q310 177 1027 700q659 374 887 584q300 287 350 560h-70q-824 0 -934 -210q0 -139 -910 -420q-59 11 -303 770l560 513q727 327 1260 327q750 70 933 70z" />
    <glyph glyph-name="three" unicode="3" horiz-adv-x="3856" 
d="M1540 2684h1890q210 -661 210 -747q-17 -163 -607 -724q397 -99 397 -326q140 -319 257 -747q-85 -607 -397 -607q-811 -385 -1027 -443h-1167q-723 213 -723 373l-210 537q75 70 793 327q60 -60 374 -327q128 -70 583 -140q399 0 584 303v24q-644 140 -817 140l-117 -24
q-350 663 -350 817q637 457 770 607h-93q-333 0 -980 -117q-210 530 -280 770q650 304 910 304z" />
    <glyph glyph-name="four" unicode="4" horiz-adv-x="4486" 
d="M3127 2940q304 -650 304 -1120q46 -505 46 -957l140 -46q160 23 257 23h257q78 0 280 -817l-864 -303q-23 -41 -23 -94v-233q-1242 -467 -1307 -467q-257 628 -257 864q24 41 24 93l-47 24q-494 -47 -864 -47h-46q-83 0 -514 -140h-23q-141 103 -420 1003q0 53 140 164
q106 279 1144 1120q0 82 560 560q545 233 1213 373zM1120 770h1120l327 1120q-985 -728 -1447 -1120z" />
    <glyph glyph-name="five" unicode="5" horiz-adv-x="4011" 
d="M2408 2917l94 -23l326 23q794 0 794 -257q140 -396 187 -653q-47 -47 -794 -257v-23q-69 0 -1050 70q-187 0 -187 -140q0 -53 -23 -94q588 -23 933 -23h234q331 0 420 -280q187 -366 350 -560q163 -405 280 -793q0 -117 -537 -397q-307 -248 -1283 -584
q-166 -46 -257 -46q-519 0 -1120 280q-280 685 -280 723v47l770 303q398 -256 1003 -256h24q243 21 490 256v24q-73 233 -304 233q-318 23 -396 23q-53 0 -94 -23q-159 23 -256 23h-584q-46 0 -233 -46q-817 1762 -817 1913q460 350 1587 514h303q200 0 420 23z" />
    <glyph glyph-name="six" unicode="6" horiz-adv-x="3676" 
d="M2229 2894q980 -131 980 -444q210 -532 210 -653q0 -62 -677 -304q0 -46 -350 -116q-85 280 -233 280q-23 23 -187 23q-105 -105 -490 -373q755 -94 934 -94q309 24 513 24q233 0 373 -584q187 -445 187 -816q0 -145 -747 -771q-251 -116 -676 -210q-1549 239 -1587 607
q0 39 -257 700l23 234v1026q0 53 -23 94q0 333 700 793q352 397 1214 584h93zM1342 303l-23 -163v-47l910 -186q163 288 163 350v46h-1050z" />
    <glyph glyph-name="seven" unicode="7" horiz-adv-x="3280" 
d="M818 2730h93q517 -70 631 -70h536q24 0 24 -23l46 23h420q327 0 327 -210q47 0 257 -770q-467 -1090 -467 -1213q-220 -918 -280 -957l-1494 -607l-280 630q24 41 24 93l-47 94q0 44 980 1867v23q-1016 47 -1237 47q-40 -24 -93 -24q-227 540 -280 817q759 280 840 280z
" />
    <glyph glyph-name="eight" unicode="8" horiz-adv-x="3643" 
d="M770 2684h2311q146 0 443 -1004q-57 -216 -677 -560q350 -735 350 -1190v-117q0 -429 -1563 -723h-700q-289 0 -514 466q-140 375 -303 911v23q0 27 630 490v23q-163 229 -420 981q0 630 210 630q64 59 233 70zM1564 1913h-93v-46q460 -164 536 -164l210 164v23
q-145 70 -256 70q-314 -47 -397 -47zM1331 187v-47q331 -47 466 -47q350 0 350 187l-350 210z" />
    <glyph glyph-name="nine" unicode="9" horiz-adv-x="3358" 
d="M1307 2684h1680q210 -622 210 -724q-88 -2660 -280 -2660q-546 -210 -654 -210h-560q-233 563 -233 606q140 569 140 654q-189 -70 -350 -70h-234q-464 0 -770 1120q-93 171 -93 303v94q0 491 1144 887zM1260 1493v-46q125 -140 303 -140q70 76 187 513q-45 23 -70 23
q-238 0 -420 -350z" />
    <glyph glyph-name="colon" unicode=":" horiz-adv-x="1779" 
d="M1246 2077h24q67 0 303 -770q-23 -93 -23 -164l23 -116q-431 -187 -957 -374q-77 147 -233 234q-187 466 -257 770q649 381 1120 420zM1176 653q309 0 374 -233q186 -601 186 -654v-70q0 -78 -840 -373v23q-105 -46 -303 -46h-47q-81 38 -350 770v70q203 350 467 350
q101 59 513 163z" />
    <glyph glyph-name="semicolon" unicode=";" horiz-adv-x="1825" 
d="M1376 2077q280 -914 280 -980q0 -94 -654 -327q-78 -65 -420 -187l-23 47q-95 -47 -140 -47q-280 653 -280 794v23q0 420 280 420q654 257 957 257zM1446 607h23q79 0 304 -794q-257 -723 -420 -723l-631 -257q-326 691 -326 770q93 194 93 280q0 32 -117 350
q799 374 1074 374z" />
    <glyph glyph-name="less" unicode="&#x3c;" horiz-adv-x="3111" 
d="M2674 2590q280 -659 374 -1073h-24q-195 -94 -956 -397l-47 23q-140 -54 -280 -186q134 -140 443 -304q490 -426 490 -746q47 0 140 -421q0 -46 -746 -280h-24q-503 146 -933 607q-296 449 -700 654q-327 717 -327 816q278 280 1284 701q514 433 1306 606z" />
    <glyph glyph-name="equal" unicode="=" horiz-adv-x="3064" 
d="M1978 2054h490q70 0 70 -117h187q117 -158 257 -794v-23q-960 -350 -1447 -350q-468 47 -630 47q-80 -1 -397 -70q-145 221 -350 910q748 327 863 327q53 0 94 -24q445 94 863 94zM2468 747h164q172 -225 326 -747q47 -91 47 -257q0 -164 -350 -233q-490 -164 -560 -164
q-288 117 -653 117h-257q-263 0 -770 -140q-67 3 -327 770l23 47q-23 45 -23 70q530 303 1820 467q325 70 560 70z" />
    <glyph glyph-name="greater" unicode="&#x3e;" horiz-adv-x="2878" 
d="M809 2310q221 -170 887 -350q545 -280 887 -373q210 -609 280 -1074q-476 -289 -1050 -770q-226 -323 -653 -490l-444 -163h-47q-420 782 -420 957v23l724 443l163 187q-345 86 -817 537q-303 691 -303 770q758 303 793 303z" />
    <glyph glyph-name="question" unicode="?" horiz-adv-x="3508" 
d="M1805 2800q330 0 1050 -326q374 -316 374 -514q233 -560 233 -723q0 -610 -1213 -817l-117 -23l23 -47v-140q-20 -91 -373 -163q-403 -187 -607 -187q-397 706 -397 1073v24q186 188 911 443q367 -47 490 -47h70q33 0 70 70q-549 327 -934 327l-373 -210l-630 -210h-47
l-280 770q745 580 1750 700zM2272 117q187 -369 280 -794q-203 -174 -1213 -490h-47q-140 173 -350 817q1111 420 1330 467z" />
    <glyph glyph-name="at" unicode="@" horiz-adv-x="4324" 
d="M1930 2660h1867q113 0 396 -957v-1283q-350 -934 -513 -934q-735 -233 -1027 -233q-80 0 -677 210q-308 0 -490 700q-163 338 -163 607q0 343 537 467q221 163 653 163q0 39 163 47h24q59 -12 303 -770q-167 -113 -467 -187v-23q316 -94 374 -94q321 661 396 910
q-99 350 -350 350h-46q-1124 -70 -1540 -140q-187 -398 -187 -816q96 -817 280 -817q93 -171 93 -304q-95 -466 -420 -466h-397q-186 165 -490 1260l-93 443v700q0 89 140 491q-47 85 -47 186q964 490 1681 490z" />
    <glyph glyph-name="A" unicode="A" horiz-adv-x="4237" 
d="M2608 2684h700q47 0 514 -1541q0 -186 303 -1166v-794q-240 -93 -327 -93h-630q-47 0 -163 326q-727 147 -1517 187q-214 0 -280 -233q0 -133 -607 -280h-303q-187 431 -187 536v771q339 595 1470 1960q630 233 1027 327zM2515 1587q-14 -61 -677 -1050q93 -47 933 -164
q-116 840 -233 1214h-23z" />
    <glyph glyph-name="A" unicode="a" horiz-adv-x="4237" 
d="M2608 2684h700q47 0 514 -1541q0 -186 303 -1166v-794q-240 -93 -327 -93h-630q-47 0 -163 326q-727 147 -1517 187q-214 0 -280 -233q0 -133 -607 -280h-303q-187 431 -187 536v771q339 595 1470 1960q630 233 1027 327zM2515 1587q-14 -61 -677 -1050q93 -47 933 -164
q-116 840 -233 1214h-23z" />
    <glyph glyph-name="B" unicode="B" horiz-adv-x="3886" 
d="M2312 2847h280q911 0 911 -280q233 -631 233 -910q23 -353 23 -490q0 -281 -280 -374q-70 0 -70 -70q350 -827 350 -1097q-154 -107 -1563 -723q-1268 117 -1681 117q-24 0 -70 -24q-116 0 -373 817q158 59 233 117q-70 776 -116 2404q0 217 1330 443q685 70 793 70z
M1239 1750l23 -280v-187q477 117 1424 280v187q-210 47 -910 70q-485 -70 -537 -70zM1309 233v-23q0 -303 70 -303q784 -24 1050 -24q257 0 257 140q-134 234 -514 234h-396q-152 0 -467 -24z" />
    <glyph glyph-name="B" unicode="b" horiz-adv-x="3886" 
d="M2312 2847h280q911 0 911 -280q233 -631 233 -910q23 -353 23 -490q0 -281 -280 -374q-70 0 -70 -70q350 -827 350 -1097q-154 -107 -1563 -723q-1268 117 -1681 117q-24 0 -70 -24q-116 0 -373 817q158 59 233 117q-70 776 -116 2404q0 217 1330 443q685 70 793 70z
M1239 1750l23 -280v-187q477 117 1424 280v187q-210 47 -910 70q-485 -70 -537 -70zM1309 233v-23q0 -303 70 -303q784 -24 1050 -24q257 0 257 140q-134 234 -514 234h-396q-152 0 -467 -24z" />
    <glyph glyph-name="C" unicode="C" horiz-adv-x="3912" 
d="M2366 2870h70q155 0 816 -163q263 -415 421 -1004q46 -151 46 -210q-708 -256 -957 -256q0 -47 -116 -47h-24q-128 210 -210 210h-210q-117 0 -350 -23q-326 -669 -326 -817q521 -444 840 -467h46q189 0 304 374q54 0 747 233q80 0 186 -467q94 -170 94 -303v-23
q-140 -388 -444 -514q-124 -117 -1050 -397q-253 -163 -513 -163h-70q-355 0 -607 187l-47 -24h-93q-713 1814 -817 2334q66 89 467 910q310 280 1423 560q248 70 374 70z" />
    <glyph glyph-name="C" unicode="c" horiz-adv-x="3912" 
d="M2366 2870h70q155 0 816 -163q263 -415 421 -1004q46 -151 46 -210q-708 -256 -957 -256q0 -47 -116 -47h-24q-128 210 -210 210h-210q-117 0 -350 -23q-326 -669 -326 -817q521 -444 840 -467h46q189 0 304 374q54 0 747 233q80 0 186 -467q94 -170 94 -303v-23
q-140 -388 -444 -514q-124 -117 -1050 -397q-253 -163 -513 -163h-70q-355 0 -607 187l-47 -24h-93q-713 1814 -817 2334q66 89 467 910q310 280 1423 560q248 70 374 70z" />
    <glyph glyph-name="D" unicode="D" horiz-adv-x="4019" 
d="M972 2567h910q1067 0 1213 -303q331 -568 771 -1751q46 -187 46 -233v-93q0 -613 -677 -864q-649 -350 -1260 -350q-464 47 -513 47q-128 -86 -794 -140q0 -24 -93 -24q-210 131 -490 1097q108 58 233 94q0 152 24 396q-24 451 -210 1751q0 149 840 373zM1672 1517v-257
q-47 -836 -47 -933v-140q0 -73 700 -117h187q327 0 327 560q-228 863 -864 863q0 24 -233 24h-70z" />
    <glyph glyph-name="D" unicode="d" horiz-adv-x="4019" 
d="M972 2567h910q1067 0 1213 -303q331 -568 771 -1751q46 -187 46 -233v-93q0 -613 -677 -864q-649 -350 -1260 -350q-464 47 -513 47q-128 -86 -794 -140q0 -24 -93 -24q-210 131 -490 1097q108 58 233 94q0 152 24 396q-24 451 -210 1751q0 149 840 373zM1672 1517v-257
q-47 -836 -47 -933v-140q0 -73 700 -117h187q327 0 327 560q-228 863 -864 863q0 24 -233 24h-70z" />
    <glyph glyph-name="E" unicode="E" horiz-adv-x="3324" 
d="M1283 2684h23q51 0 93 -187q607 23 1424 117v-24l210 -747v-23q-82 -84 -864 -280q-408 -23 -513 -23v-304h23q201 0 1190 164q111 0 280 -817q-589 -233 -1423 -327l23 -233l1330 117q187 -569 234 -817q-693 -280 -1470 -280q-509 -47 -1331 -210q-143 126 -396 886
q0 24 23 24q-70 163 -70 233l233 2101q-23 92 -23 163q0 239 1004 467z" />
    <glyph glyph-name="E" unicode="e" horiz-adv-x="3324" 
d="M1283 2684h23q51 0 93 -187q607 23 1424 117v-24l210 -747v-23q-82 -84 -864 -280q-408 -23 -513 -23v-304h23q201 0 1190 164q111 0 280 -817q-589 -233 -1423 -327l23 -233l1330 117q187 -569 234 -817q-693 -280 -1470 -280q-509 -47 -1331 -210q-143 126 -396 886
q0 24 23 24q-70 163 -70 233l233 2101q-23 92 -23 163q0 239 1004 467z" />
    <glyph glyph-name="F" unicode="F" horiz-adv-x="3435" 
d="M3072 2590q211 -716 211 -770v-47q-734 -233 -887 -233h-817q93 -240 93 -303l1167 46q131 0 303 -793v-23q0 -62 -793 -280v46h-537v-23q47 -565 47 -794q0 -216 -443 -326q-359 -156 -724 -280q-345 0 -513 653q-35 3 -117 257q163 770 210 1167q0 23 -23 23l70 373
l-70 934q692 350 1213 350h677q346 0 933 23z" />
    <glyph glyph-name="F" unicode="f" horiz-adv-x="3435" 
d="M3072 2590q211 -716 211 -770v-47q-734 -233 -887 -233h-817q93 -240 93 -303l1167 46q131 0 303 -793v-23q0 -62 -793 -280v46h-537v-23q47 -565 47 -794q0 -216 -443 -326q-359 -156 -724 -280q-345 0 -513 653q-35 3 -117 257q163 770 210 1167q0 23 -23 23l70 373
l-70 934q692 350 1213 350h677q346 0 933 23z" />
    <glyph glyph-name="G" unicode="G" horiz-adv-x="3741" 
d="M2297 2590h373q501 0 654 -373q257 -634 257 -747q-8 -68 -747 -303q-192 326 -420 326q-84 0 -210 24q-287 -24 -560 -24h-94q-163 0 -163 -303q-140 -508 -233 -1050q0 -134 560 -163q0 23 23 23q-187 451 -257 700q629 280 910 280l981 70q303 -1548 303 -1704v-23
q-193 -117 -2077 -350q-220 -23 -420 -23q-491 0 -654 210q-418 909 -443 1190v140q0 178 303 1517q0 141 934 490q384 93 980 93z" />
    <glyph glyph-name="G" unicode="g" horiz-adv-x="3741" 
d="M2297 2590h373q501 0 654 -373q257 -634 257 -747q-8 -68 -747 -303q-192 326 -420 326q-84 0 -210 24q-287 -24 -560 -24h-94q-163 0 -163 -303q-140 -508 -233 -1050q0 -134 560 -163q0 23 23 23q-187 451 -257 700q629 280 910 280l981 70q303 -1548 303 -1704v-23
q-193 -117 -2077 -350q-220 -23 -420 -23q-491 0 -654 210q-418 909 -443 1190v140q0 178 303 1517q0 141 934 490q384 93 980 93z" />
    <glyph glyph-name="H" unicode="H" horiz-adv-x="4209" 
d="M3562 2754h70q166 0 443 -934q0 -370 -47 -537q0 -23 24 -23q-24 -94 -94 -747q24 -38 24 -116q0 -24 -24 -24l24 -116v-304q0 -111 70 -467q0 -122 -1144 -560h-23q-397 811 -397 1167v24l-233 23h-397q-373 0 -373 -93q0 -291 -47 -607q23 -87 23 -210
q-241 -140 -933 -374q-142 28 -467 981v70q373 1387 373 1726q-23 58 -46 607q640 280 770 280q106 -62 373 -933v-467q62 0 980 70v23q24 329 24 560v24q-94 366 -94 397q0 266 1121 560z" />
    <glyph glyph-name="H" unicode="h" horiz-adv-x="4209" 
d="M3562 2754h70q166 0 443 -934q0 -370 -47 -537q0 -23 24 -23q-24 -94 -94 -747q24 -38 24 -116q0 -24 -24 -24l24 -116v-304q0 -111 70 -467q0 -122 -1144 -560h-23q-397 811 -397 1167v24l-233 23h-397q-373 0 -373 -93q0 -291 -47 -607q23 -87 23 -210
q-241 -140 -933 -374q-142 28 -467 981v70q373 1387 373 1726q-23 58 -46 607q640 280 770 280q106 -62 373 -933v-467q62 0 980 70v23q24 329 24 560v24q-94 366 -94 397q0 266 1121 560z" />
    <glyph glyph-name="I" unicode="I" horiz-adv-x="2007" 
d="M1362 2870q350 -101 350 -140q210 -708 210 -770v-23q-809 -350 -1423 -537q-184 0 -467 840v24q83 226 513 396q530 164 817 210zM1269 1540h23q70 0 234 -583q31 -11 93 -210l-23 -117v-117q0 -197 46 -1027q0 -373 -256 -373q-654 -210 -887 -210q-75 65 -374 910v24
l257 1260q25 0 233 233q43 0 654 210z" />
    <glyph glyph-name="I" unicode="i" horiz-adv-x="2007" 
d="M1362 2870q350 -101 350 -140q210 -708 210 -770v-23q-809 -350 -1423 -537q-184 0 -467 840v24q83 226 513 396q530 164 817 210zM1269 1540h23q70 0 234 -583q31 -11 93 -210l-23 -117v-117q0 -197 46 -1027q0 -373 -256 -373q-654 -210 -887 -210q-75 65 -374 910v24
l257 1260q25 0 233 233q43 0 654 210z" />
    <glyph glyph-name="J" unicode="J" horiz-adv-x="3461" 
d="M2777 2614h70q327 0 327 -257q117 -292 164 -560q0 -47 -631 -234q0 -241 -93 -863q0 -23 23 -23q-55 -444 -70 -444l24 -46v-94q0 -68 70 -793q0 -60 -957 -397q-117 0 -303 -47l-140 24q-46 -24 -70 -24q-320 397 -724 397q-160 166 -350 887h23q690 257 747 257
q51 0 467 -117l-23 117v886l-24 234h-863l-117 -24q-210 514 -280 794q678 280 770 280q218 0 1027 -23q726 70 933 70z" />
    <glyph glyph-name="J" unicode="j" horiz-adv-x="3461" 
d="M2777 2614h70q327 0 327 -257q117 -292 164 -560q0 -47 -631 -234q0 -241 -93 -863q0 -23 23 -23q-55 -444 -70 -444l24 -46v-94q0 -68 70 -793q0 -60 -957 -397q-117 0 -303 -47l-140 24q-46 -24 -70 -24q-320 397 -724 397q-160 166 -350 887h23q690 257 747 257
q51 0 467 -117l-23 117v886l-24 234h-863l-117 -24q-210 514 -280 794q678 280 770 280q218 0 1027 -23q726 70 933 70z" />
    <glyph glyph-name="K" unicode="K" horiz-adv-x="3779" 
d="M1093 2637l327 -1097q1259 864 1610 864q171 93 304 93h46q53 0 257 -794q-1184 -606 -1470 -723v-23q169 -81 840 -560q420 -266 420 -467q187 -526 187 -607q-732 -257 -794 -257q-121 192 -840 654l-303 210h-24v-304q0 -303 -210 -303q-480 -210 -910 -327
q-61 0 -327 794q0 1369 -163 2427l723 303q291 117 327 117z" />
    <glyph glyph-name="K" unicode="k" horiz-adv-x="3779" 
d="M1093 2637l327 -1097q1259 864 1610 864q171 93 304 93h46q53 0 257 -794q-1184 -606 -1470 -723v-23q169 -81 840 -560q420 -266 420 -467q187 -526 187 -607q-732 -257 -794 -257q-121 192 -840 654l-303 210h-24v-304q0 -303 -210 -303q-480 -210 -910 -327
q-61 0 -327 794q0 1369 -163 2427l723 303q291 117 327 117z" />
    <glyph glyph-name="L" unicode="L" horiz-adv-x="3604" 
d="M1350 2730h70q257 -700 257 -793v-677q0 -301 -47 -1003h24q395 70 1423 116q327 0 327 -210q140 -397 187 -653v-210q-6 -108 -794 -374l-980 94l-1167 -94q-467 911 -467 1447v1587l-23 140q78 141 583 420q423 164 607 210z" />
    <glyph glyph-name="L" unicode="l" horiz-adv-x="3604" 
d="M1350 2730h70q257 -700 257 -793v-677q0 -301 -47 -1003h24q395 70 1423 116q327 0 327 -210q140 -397 187 -653v-210q-6 -108 -794 -374l-980 94l-1167 -94q-467 911 -467 1447v1587l-23 140q78 141 583 420q423 164 607 210z" />
    <glyph glyph-name="M" unicode="M" horiz-adv-x="4368" 
d="M3767 2637q158 0 373 -934q47 -1148 47 -2030v-187q0 -88 -840 -350q-401 854 -420 1121h23q-23 5 -23 233q-222 -303 -420 -303q-438 -164 -537 -164h-23q-15 0 -257 257h-23v-23q0 -222 23 -911q0 -280 -187 -280h-1143q-187 469 -187 560v1751q0 723 140 723
q0 150 817 350h23q241 -122 654 -653q300 -374 326 -374h24q519 887 606 887z" />
    <glyph glyph-name="M" unicode="m" horiz-adv-x="4368" 
d="M3767 2637q158 0 373 -934q47 -1148 47 -2030v-187q0 -88 -840 -350q-401 854 -420 1121h23q-23 5 -23 233q-222 -303 -420 -303q-438 -164 -537 -164h-23q-15 0 -257 257h-23v-23q0 -222 23 -911q0 -280 -187 -280h-1143q-187 469 -187 560v1751q0 723 140 723
q0 150 817 350h23q241 -122 654 -653q300 -374 326 -374h24q519 887 606 887z" />
    <glyph glyph-name="N" unicode="N" horiz-adv-x="4357" 
d="M3350 2660h817v-2053q0 -110 -490 -1541h-1167q-244 237 -863 1004l-234 -864l-443 -140h-630q-187 503 -187 584v910q93 460 93 700q101 747 257 747q34 0 700 210q300 -150 607 -584q223 -362 583 -770q234 1210 304 1401z" />
    <glyph glyph-name="N" unicode="n" horiz-adv-x="4357" 
d="M3350 2660h817v-2053q0 -110 -490 -1541h-1167q-244 237 -863 1004l-234 -864l-443 -140h-630q-187 503 -187 584v910q93 460 93 700q101 747 257 747q34 0 700 210q300 -150 607 -584q223 -362 583 -770q234 1210 304 1401z" />
    <glyph glyph-name="O" unicode="O" horiz-adv-x="4195" 
d="M2375 2800q758 -259 1540 -980q163 -405 280 -793q-420 -1269 -490 -1377q-258 -444 -584 -444q-95 -57 -606 -186q-199 23 -304 23l-653 -70q-864 103 -864 327q-309 356 -513 957q-140 303 -140 373v70q0 39 490 1050q0 208 700 584q176 231 1144 466zM1208 350
q0 -224 817 -350q554 76 606 117q187 529 187 793v47q-215 190 -840 373q-321 -87 -443 -303q0 -39 -327 -677z" />
    <glyph glyph-name="O" unicode="o" horiz-adv-x="4195" 
d="M2375 2800q758 -259 1540 -980q163 -405 280 -793q-420 -1269 -490 -1377q-258 -444 -584 -444q-95 -57 -606 -186q-199 23 -304 23l-653 -70q-864 103 -864 327q-309 356 -513 957q-140 303 -140 373v70q0 39 490 1050q0 208 700 584q176 231 1144 466zM1208 350
q0 -224 817 -350q554 76 606 117q187 529 187 793v47q-215 190 -840 373q-321 -87 -443 -303q0 -39 -327 -677z" />
    <glyph glyph-name="P" unicode="P" horiz-adv-x="3936" 
d="M2658 2614q276 0 934 -467q280 -807 280 -864v-46q0 -633 -1704 -1074q59 -146 117 -583q93 -156 93 -374l-817 -280q-23 0 -23 24l-630 -70q-191 286 -397 886l47 164v117q0 252 23 420q0 26 -70 723l-47 -23h-23q-85 0 -350 746q-51 0 -70 211v23q710 397 1447 397
q293 -24 350 -24zM1468 1470q0 -233 70 -233q90 -24 187 -24h490q443 42 443 140q-210 210 -537 210q-163 0 -653 -93z" />
    <glyph glyph-name="P" unicode="p" horiz-adv-x="3936" 
d="M2658 2614q276 0 934 -467q280 -807 280 -864v-46q0 -633 -1704 -1074q59 -146 117 -583q93 -156 93 -374l-817 -280q-23 0 -23 24l-630 -70q-191 286 -397 886l47 164v117q0 252 23 420q0 26 -70 723l-47 -23h-23q-85 0 -350 746q-51 0 -70 211v23q710 397 1447 397
q293 -24 350 -24zM1468 1470q0 -233 70 -233q90 -24 187 -24h490q443 42 443 140q-210 210 -537 210q-163 0 -653 -93z" />
    <glyph glyph-name="Q" unicode="Q" horiz-adv-x="4090" 
d="M2087 2614h210q164 0 676 -374q654 -305 654 -560q257 -612 257 -747v-326q0 -178 -187 -747q146 0 257 -560l-817 -444l-490 350q-1561 -186 -1704 -186q-703 835 -770 1237q-140 288 -140 443q0 401 793 1400q647 304 1261 514zM1153 490q290 -537 630 -537v-23
q35 23 140 23l-210 700l700 257v-23q314 -437 327 -490h23l140 630q-189 96 -840 490q-389 -104 -513 -304q-359 -610 -397 -723z" />
    <glyph glyph-name="Q" unicode="q" horiz-adv-x="4090" 
d="M2087 2614h210q164 0 676 -374q654 -305 654 -560q257 -612 257 -747v-326q0 -178 -187 -747q146 0 257 -560l-817 -444l-490 350q-1561 -186 -1704 -186q-703 835 -770 1237q-140 288 -140 443q0 401 793 1400q647 304 1261 514zM1153 490q290 -537 630 -537v-23
q35 23 140 23l-210 700l700 257v-23q314 -437 327 -490h23l140 630q-189 96 -840 490q-389 -104 -513 -304q-359 -610 -397 -723z" />
    <glyph glyph-name="R" unicode="R" horiz-adv-x="3749" 
d="M1563 2660q1703 0 1703 -256q374 -922 374 -1051q0 -534 -420 -700q-390 -157 -467 -233q747 -217 747 -467l210 -630q-57 0 -234 -210q-700 -233 -747 -233q-94 153 -1633 816l23 -326q0 -152 -327 -210q-301 -164 -396 -164q-234 661 -234 794q0 614 -23 2030
q-140 477 -140 490q781 327 1027 327q111 23 537 23zM1189 1610v-350q1307 99 1307 163q23 41 23 94v23q-476 70 -1166 70h-164z" />
    <glyph glyph-name="R" unicode="r" horiz-adv-x="3749" 
d="M1563 2660q1703 0 1703 -256q374 -922 374 -1051q0 -534 -420 -700q-390 -157 -467 -233q747 -217 747 -467l210 -630q-57 0 -234 -210q-700 -233 -747 -233q-94 153 -1633 816l23 -326q0 -152 -327 -210q-301 -164 -396 -164q-234 661 -234 794q0 614 -23 2030
q-140 477 -140 490q781 327 1027 327q111 23 537 23zM1189 1610v-350q1307 99 1307 163q23 41 23 94v23q-476 70 -1166 70h-164z" />
    <glyph glyph-name="S" unicode="S" horiz-adv-x="4047" 
d="M2812 2894l234 -140q700 -508 700 -724q187 -496 187 -537v-46l-771 -280q-537 565 -723 583q-454 -117 -583 -163l23 -47q0 -117 -23 -350l46 -23h327q1015 0 1400 -374l374 -1213v-164q0 -70 -1191 -536q-511 140 -1120 140h-186q-254 0 -1027 -70q-289 615 -327 793
v23q50 95 770 374q138 0 490 -23l164 23l653 -47q45 24 70 24h93q0 163 -280 163q-1337 163 -1423 163q-514 1267 -514 1517v94q58 0 327 186q2060 654 2310 654z" />
    <glyph glyph-name="S" unicode="s" horiz-adv-x="4047" 
d="M2812 2894l234 -140q700 -508 700 -724q187 -496 187 -537v-46l-771 -280q-537 565 -723 583q-454 -117 -583 -163l23 -47q0 -117 -23 -350l46 -23h327q1015 0 1400 -374l374 -1213v-164q0 -70 -1191 -536q-511 140 -1120 140h-186q-254 0 -1027 -70q-289 615 -327 793
v23q50 95 770 374q138 0 490 -23l164 23l653 -47q45 24 70 24h93q0 163 -280 163q-1337 163 -1423 163q-514 1267 -514 1517v94q58 0 327 186q2060 654 2310 654z" />
    <glyph glyph-name="T" unicode="T" horiz-adv-x="3886" 
d="M2923 2637q290 -23 583 -23q100 0 374 -1051l23 -116q-115 -101 -677 -350q-2491 233 -2870 280q-70 52 -327 793q678 327 1097 327q174 0 1797 140zM1709 1167q111 0 770 -187q61 0 117 -163q163 -590 163 -607q-124 -358 -140 -840q0 -181 -1120 -444
q-326 637 -537 1611q-93 170 -93 303q47 0 840 327z" />
    <glyph glyph-name="T" unicode="t" horiz-adv-x="3886" 
d="M2923 2637q290 -23 583 -23q100 0 374 -1051l23 -116q-115 -101 -677 -350q-2491 233 -2870 280q-70 52 -327 793q678 327 1097 327q174 0 1797 140zM1709 1167q111 0 770 -187q61 0 117 -163q163 -590 163 -607q-124 -358 -140 -840q0 -181 -1120 -444
q-326 637 -537 1611q-93 170 -93 303q47 0 840 327z" />
    <glyph glyph-name="U" unicode="U" horiz-adv-x="3887" 
d="M3451 2637q70 -111 303 -770l-46 -444q23 -325 23 -420q-53 -1245 -187 -1353q-84 -537 -467 -537q-489 -187 -630 -187q-78 0 -116 24q-160 -24 -257 -24h-163q-599 117 -817 140l-47 -23q-384 0 -490 210q-373 716 -373 1330l-117 514v23q140 498 187 840
q417 278 490 374q697 256 747 256q303 -554 420 -1330q-140 -531 -140 -887v-46q314 -140 420 -140h303q140 0 163 1096q24 0 24 70q-24 317 -24 444q0 20 24 560q46 47 770 280z" />
    <glyph glyph-name="U" unicode="u" horiz-adv-x="3887" 
d="M3451 2637q70 -111 303 -770l-46 -444q23 -325 23 -420q-53 -1245 -187 -1353q-84 -537 -467 -537q-489 -187 -630 -187q-78 0 -116 24q-160 -24 -257 -24h-163q-599 117 -817 140l-47 -23q-384 0 -490 210q-373 716 -373 1330l-117 514v23q140 498 187 840
q417 278 490 374q697 256 747 256q303 -554 420 -1330q-140 -531 -140 -887v-46q314 -140 420 -140h303q140 0 163 1096q24 0 24 70q-24 317 -24 444q0 20 24 560q46 47 770 280z" />
    <glyph glyph-name="V" unicode="V" horiz-adv-x="3924" 
d="M3458 2730q257 -662 443 -1470q-310 0 -1120 -1307q-68 -120 -187 -583q0 -123 -1050 -397l-140 23q-17 0 -140 -23q-327 66 -327 280q-256 538 -256 817q0 510 -350 1190q-257 682 -257 817q0 70 817 327q393 -599 887 -1634h23q391 910 910 1727z" />
    <glyph glyph-name="V" unicode="v" horiz-adv-x="3924" 
d="M3458 2730q257 -662 443 -1470q-310 0 -1120 -1307q-68 -120 -187 -583q0 -123 -1050 -397l-140 23q-17 0 -140 -23q-327 66 -327 280q-256 538 -256 817q0 510 -350 1190q-257 682 -257 817q0 70 817 327q393 -599 887 -1634h23q391 910 910 1727z" />
    <glyph glyph-name="W" unicode="W" horiz-adv-x="4343" 
d="M3950 2684h24q233 -693 233 -771v-23q0 -101 -47 -187q0 -29 94 -326q0 -108 -397 -1797q0 -306 -630 -397q0 -32 -420 -140l-47 23q-41 -23 -93 -23h-24q-115 0 -396 1004l-24 116h-23q-185 -222 -373 -653q-836 -304 -934 -304q-467 901 -723 2474q-117 442 -117 560
q0 102 793 327q281 -620 374 -1214q70 -196 70 -373h23q278 466 304 467q668 233 770 233q51 -8 350 -467l140 -163q186 672 256 1307q0 126 817 327z" />
    <glyph glyph-name="W" unicode="w" horiz-adv-x="4343" 
d="M3950 2684h24q233 -693 233 -771v-23q0 -101 -47 -187q0 -29 94 -326q0 -108 -397 -1797q0 -306 -630 -397q0 -32 -420 -140l-47 23q-41 -23 -93 -23h-24q-115 0 -396 1004l-24 116h-23q-185 -222 -373 -653q-836 -304 -934 -304q-467 901 -723 2474q-117 442 -117 560
q0 102 793 327q281 -620 374 -1214q70 -196 70 -373h23q278 466 304 467q668 233 770 233q51 -8 350 -467l140 -163q186 672 256 1307q0 126 817 327z" />
    <glyph glyph-name="X" unicode="X" horiz-adv-x="4072" 
d="M1145 2474q27 0 537 -537l396 -467q813 770 1120 770q336 117 421 117h23q55 0 257 -794q-40 -93 -280 -186l-654 -584v-23q747 -300 747 -583q187 -514 187 -584q-47 -373 -187 -373q-551 -257 -887 -257l-653 723l-210 187q-567 -592 -887 -677l-490 -163h-47
q-257 717 -257 794q75 5 887 816v24q-194 173 -747 396q-373 766 -373 864q172 230 700 397q38 0 397 140z" />
    <glyph glyph-name="X" unicode="x" horiz-adv-x="4072" 
d="M1145 2474q27 0 537 -537l396 -467q813 770 1120 770q336 117 421 117h23q55 0 257 -794q-40 -93 -280 -186l-654 -584v-23q747 -300 747 -583q187 -514 187 -584q-47 -373 -187 -373q-551 -257 -887 -257l-653 723l-210 187q-567 -592 -887 -677l-490 -163h-47
q-257 717 -257 794q75 5 887 816v24q-194 173 -747 396q-373 766 -373 864q172 230 700 397q38 0 397 140z" />
    <glyph glyph-name="Y" unicode="Y" horiz-adv-x="3399" 
d="M785 2380q64 0 794 -793h23q795 630 1120 630q172 93 420 93q210 -724 210 -770q-479 -315 -1050 -747q65 -89 140 -1097q54 0 70 -396q-803 -304 -1260 -420q-398 672 -467 1073q187 461 187 677q-437 489 -677 700l-280 770q734 280 770 280z" />
    <glyph glyph-name="Y" unicode="y" horiz-adv-x="3399" 
d="M785 2380q64 0 794 -793h23q795 630 1120 630q172 93 420 93q210 -724 210 -770q-479 -315 -1050 -747q65 -89 140 -1097q54 0 70 -396q-803 -304 -1260 -420q-398 672 -467 1073q187 461 187 677q-437 489 -677 700l-280 770q734 280 770 280z" />
    <glyph glyph-name="Z" unicode="Z" horiz-adv-x="3847" 
d="M1874 2497q135 0 373 -23q392 23 607 23q443 0 443 -280q187 -501 187 -607v-47q-475 -428 -1494 -1260l47 -23h723q887 0 887 -140l210 -724q-38 0 -93 -140q-332 -192 -1074 -420l-1050 304l-700 93q-213 0 -490 -70q-126 0 -420 817q146 197 1400 1167l280 256v24
h-326q-129 0 -631 -94q-45 24 -70 24l-233 -47q-280 749 -280 794q579 303 1144 303z" />
    <glyph glyph-name="Z" unicode="z" horiz-adv-x="3847" 
d="M1874 2497q135 0 373 -23q392 23 607 23q443 0 443 -280q187 -501 187 -607v-47q-475 -428 -1494 -1260l47 -23h723q887 0 887 -140l210 -724q-38 0 -93 -140q-332 -192 -1074 -420l-1050 304l-700 93q-213 0 -490 -70q-126 0 -420 817q146 197 1400 1167l280 256v24
h-326q-129 0 -631 -94q-45 24 -70 24l-233 -47q-280 749 -280 794q579 303 1144 303z" />
    <glyph glyph-name="bracketleft" unicode="[" horiz-adv-x="2660" 
d="M1484 2917q105 0 140 -23q159 23 256 23h24q396 0 396 -117q47 -92 257 -676q-135 -70 -840 -327q-187 -1507 -187 -1610q910 0 910 -280q0 -57 140 -514v-47q-51 0 -956 -280q-1193 257 -1401 327l-163 490q303 1787 303 2264q53 467 234 467l863 303h24z" />
    <glyph glyph-name="backslash" unicode="\" 
d="M1157 2894q257 -749 257 -794q-260 -280 -467 -280q0 -36 -490 -187h-70l-327 841q440 280 1097 420zM1577 1890h23q62 0 234 -700q-354 -435 -677 -537q-247 -116 -304 -116h-23q-210 70 -210 280q-40 0 -210 560q435 303 513 303q533 210 654 210zM2394 1097h23
q108 -141 257 -794q-681 -630 -910 -630q-21 -38 -397 -140q-70 126 -304 794q24 0 607 560q653 210 724 210zM3257 467h47l233 -677l630 210h94l23 -117v-793h-723l-117 350q-215 -140 -794 -350h-116l-280 723q446 527 676 560q255 94 327 94z" />
    <glyph glyph-name="bracketright" unicode="]" horiz-adv-x="2660" 
d="M807 2777q146 0 350 -23q394 23 793 23q203 0 257 -350q140 -424 140 -490q-47 -233 -47 -420v-164q0 -147 187 -1120l93 -700l-1096 -537l-397 70q-468 -46 -630 -46q-234 557 -234 630q708 327 817 327h187l47 23q-187 1094 -187 1610l-24 117q-318 -24 -396 -24
q-35 0 -327 24l-280 770q695 280 747 280z" />
    <glyph glyph-name="asciicircum" unicode="^" horiz-adv-x="8821" 
d="M8088 2847q0 -56 187 -93q220 -503 373 -981l70 -256q-80 -80 -513 -327v-23q290 0 396 -630q89 -164 140 -490q-204 -140 -1026 -467q-110 -94 -631 -210h-23q-100 140 -257 140q-140 258 -373 980q-880 0 -3827 -397q-84 -102 -187 -420q-260 -244 -933 -397
q-397 -140 -584 -140q-251 0 -653 1074q179 163 606 373l117 117q-677 301 -677 443q-233 581 -233 630q321 595 490 654q226 47 700 210q354 0 677 -443q89 0 280 -584h163q113 0 1517 233q362 47 700 47h911q548 0 1120 -117v24q0 186 -24 490q181 350 1447 560h47z" />
    <glyph glyph-name="underscore" unicode="_" horiz-adv-x="4154" 
d="M3771 630q303 -764 303 -910v-187q-661 -210 -747 -257q-614 47 -1027 47h-140q-588 0 -1447 -163q-52 0 -93 23q-126 -23 -210 -23h-187q-78 0 -163 326v724q784 257 1097 257q1196 0 2544 163h70z" />
    <glyph glyph-name="grave" unicode="`" horiz-adv-x="601" 
d="M521 1079h-69l-330 202q-31 20 -46.5 40t-15.5 42q0 31 20.5 51t53.5 20q20 0 40.5 -12t55.5 -47z" />
    <glyph glyph-name="braceleft" unicode="{" horiz-adv-x="3127" 
d="M2650 2940q117 0 397 -1050q-287 -152 -397 -233l-350 -164l24 -46v-70q0 -184 -187 -1074l233 -653q-217 -560 -303 -560q-399 -47 -793 -47q-92 140 -164 140q-354 -187 -490 -187h-163q-119 78 -397 864q0 362 653 467q121 0 280 956v140q-396 113 -396 210
q-280 639 -280 701q0 299 280 373q644 187 723 187l210 -327q221 140 1120 373z" />
    <glyph glyph-name="bar" unicode="|" 
d="M2137 2940q175 -46 210 -46v-24q-268 -315 -700 -770q557 -394 630 -467q-117 -675 -163 -746q793 -266 793 -327q61 -686 210 -887q70 -23 70 -140q-223 -532 -257 -537q-676 156 -676 234q-24 122 -24 233v93q-40 -10 -396 -513q-817 187 -817 233l93 350
q-210 0 -280 -303h-23q-747 186 -747 280q187 724 303 724h70v46q-163 0 -163 234v46q0 24 23 24l-23 46v94q0 128 -23 326q0 24 23 24l-47 513q277 863 350 887q1214 327 1564 373zM2697 2777q155 0 1330 -653l257 -234q-163 -508 -257 -1563q-32 0 -256 -631h-47
q-537 141 -537 234q-93 602 -93 723q187 180 187 234q0 102 23 1026q-359 -93 -910 -186q-420 329 -420 350q8 32 723 700zM830 1610v-513l770 -164q94 530 94 607q-32 0 -257 257zM1204 280q95 0 980 -140l-234 560q-662 -336 -746 -420z" />
    <glyph glyph-name="braceright" unicode="}" horiz-adv-x="3127" 
d="M2160 2964q222 0 467 -1027q0 -242 -607 -420v-117q117 -350 164 -887q315 94 373 94q193 0 490 -1191v-46q0 -117 -817 -420q-233 0 -303 186h-23q-284 -163 -397 -163q-467 187 -747 233l-187 444q0 560 350 560q234 87 234 117l-187 1143q-23 0 -23 -23l-117 23
l-420 -140q-117 158 -350 840q23 220 23 420q58 117 490 257q326 93 374 93q257 -54 257 -210q51 0 956 234z" />
    <glyph glyph-name="asciitilde" unicode="~" horiz-adv-x="3290" 
d="M1390 1610q95 0 677 -397h47q0 62 816 280h24q108 -141 256 -793q-46 0 -46 -70q46 -152 46 -210q-24 -63 -280 -163q-66 -167 -910 -444q0 -29 -233 -93q-404 169 -537 537l-163 23l-747 -233q-280 708 -280 770v46q47 0 513 514q749 233 817 233z" />
    <glyph glyph-name="cent" unicode="&#xa2;" horiz-adv-x="3314" 
d="M2090 2847l234 -537q42 0 210 70q373 -93 373 -163q140 -319 257 -747h-24q-628 -217 -630 -257v-583l-23 -280q353 117 420 117h117q210 -701 210 -771v-46l-817 -280q0 -304 -117 -304l-816 -140q-86 350 -280 350q-796 0 -1027 981q-117 213 -117 420v116
q153 586 443 887q255 223 887 490q-70 225 -70 420zM877 677q116 -350 186 -350l421 -70v233q0 199 23 630h-280q-350 -425 -350 -443z" />
    <glyph glyph-name="sterling" unicode="&#xa3;" 
d="M2417 2824h210q76 0 560 -164q257 -697 257 -747h-23q-633 -280 -794 -280q-17 0 -397 117q-116 -156 -116 -280q816 -62 816 -117q210 -606 234 -770q-38 -46 -864 -303q0 140 -583 140q0 -12 -93 -280l210 -23q461 0 1680 163q115 0 280 23q280 0 280 -280
q210 -560 210 -770q0 -70 -210 -140q0 -122 -513 -210q-98 0 -2264 303h-1027q-47 89 -210 560q233 0 350 374q0 71 23 163q-163 0 -163 234q-47 40 -210 536q149 85 793 327q166 726 397 887q222 210 980 490q86 47 187 47z" />
    <glyph glyph-name="dieresis" unicode="&#xa8;" horiz-adv-x="721" 
d="M74 1289l71 72q13 12 25 12q11 0 27 -14l69 -73q10 -14 10 -25q0 -13 -12 -27l-69 -75q-17 -17 -25 -17q-14 0 -25 12l-76 86q-9 12 -9 23q0 13 14 26zM439 1289l71 72q13 12 25 12q11 0 27 -13l69 -74q10 -14 10 -25q0 -13 -12 -26l-69 -76q-17 -17 -25 -17
q-14 0 -25 12l-76 87q-9 11 -9 22q0 13 14 26z" />
    <glyph glyph-name="plusminus" unicode="&#xb1;" horiz-adv-x="3711" 
d="M2114 2474q81 -74 233 -537q315 23 467 23h140q303 0 303 -93l210 -724q0 -46 -840 -280h-23q0 70 -164 70l-23 -280q408 -93 513 -93q152 0 467 23l234 -793q-663 -257 -887 -257h-327q-442 70 -630 70h-93q-537 0 -1261 -210q-61 0 -303 747v70q698 280 1214 373
q-70 167 -70 187q23 45 23 70h-23q-452 -93 -934 -117q0 36 -280 794q665 280 933 280q192 0 374 23v164q0 58 -47 210q682 280 794 280z" />
    <glyph glyph-name="acute" unicode="&#xb4;" horiz-adv-x="601" 
d="M351 1375q35 35 55.5 47t40.5 12q33 0 53.5 -20t20.5 -51q0 -22 -15.5 -42t-46.5 -40l-330 -203h-69z" />
    <glyph glyph-name="bullet" unicode="&#xb7;" horiz-adv-x="2054" 
d="M1344 1587h46q377 0 584 -1120q-125 -125 -187 -304l-653 -233q-369 -140 -467 -140q-280 240 -280 280q-327 850 -327 887q0 208 793 490q185 140 491 140z" />
    <glyph glyph-name="bullet" unicode="&#x2219;" horiz-adv-x="2054" 
d="M1344 1587h46q377 0 584 -1120q-125 -125 -187 -304l-653 -233q-369 -140 -467 -140q-280 240 -280 280q-327 850 -327 887q0 208 793 490q185 140 491 140z" />
    <glyph glyph-name="bullet" unicode="&#x2022;" horiz-adv-x="2054" 
d="M1344 1587h46q377 0 584 -1120q-125 -125 -187 -304l-653 -233q-369 -140 -467 -140q-280 240 -280 280q-327 850 -327 887q0 208 793 490q185 140 491 140z" />
    <glyph glyph-name="cedilla" unicode="&#xb8;" horiz-adv-x="548" 
d="M60 -290q85 -52 152 -52q66 0 94.5 21.5t28.5 66.5t-49 64q-40 16 -102 16q-16 0 -34 -2l48 176h63l-37 -104q32 4 62 5q86 0 134 -40.5t48 -113.5q0 -76 -58.5 -120.5t-160.5 -44.5q-109 0 -189 32v96z" />
    <glyph glyph-name="circumflex" unicode="&#x2c6;" horiz-adv-x="722" 
d="M60 1079l232 355h118l232 -355h-58l-233 216l-233 -216h-58z" />
    <glyph glyph-name="caron" unicode="&#x2c7;" horiz-adv-x="722" 
d="M60 1434h58l233 -214l233 214h58l-232 -356h-118z" />
    <glyph glyph-name="breve" unicode="&#x2d8;" horiz-adv-x="724" 
d="M60 1349h51q17 -73 75 -107t167 -34t166 33.5t74 107.5h51q-20 -133 -94 -201.5t-197 -68.5q-122 0 -197 69t-96 201z" />
    <glyph glyph-name="dotaccent" unicode="&#x2d9;" horiz-adv-x="355" 
d="M74 1289l69 72q6 6 13 9t14 3q6 0 12.5 -3t12.5 -9l71 -76q5 -4 7 -10t2 -14q-1 -9 -3 -15t-8 -12l-71 -76q-12 -11 -16 -13.5t-7 -2.5q-10 0 -16.5 2.5t-10.5 8.5l-75 87q-4 4 -6 9.5t-2 13.5q0 6 3 12.5t11 13.5z" />
    <glyph glyph-name="ring" unicode="&#x2da;" horiz-adv-x="495" 
d="M136 1257q0 -42 29 -71t71 -29t71 29t29 71q0 40 -29.5 69.5t-70.5 29.5t-70.5 -29.5t-29.5 -69.5zM60 1257q0 75 51 126t125 51q76 0 127.5 -51.5t51.5 -125.5q0 -75 -51.5 -126.5t-127.5 -51.5q-74 0 -125 51.5t-51 126.5z" />
    <glyph glyph-name="ogonek" unicode="&#x2db;" horiz-adv-x="508" 
d="M331 0q-71 -62 -110.5 -119.5t-39.5 -112.5q0 -47 27 -75t73 -28q40 0 69.5 15.5t49.5 48.5l28 -16q-36 -63 -90.5 -97t-119.5 -34q-70 0 -114 35.5t-44 90.5q0 76 60.5 156.5t161.5 135.5h49z" />
    <glyph glyph-name="tilde" unicode="&#x2dc;" horiz-adv-x="714" 
d="M634 1382q-20 -103 -68.5 -154t-126.5 -51h-4q-50 0 -113 23q-66 24 -114 24q-39 0 -60.5 -20.5t-33.5 -71.5h-54q19 106 68 158.5t129 52.5q46 -1 113 -24q64 -23 112 -23h4q36 0 58 20t36 66h54z" />
    <glyph glyph-name="hungarumlaut" unicode="&#x2dd;" horiz-adv-x="729" 
d="M60 1079l144 273q24 44 45.5 63t46.5 19q28 0 48 -20t20 -47q0 -16 -10.5 -35t-30.5 -41l-205 -212h-58zM345 1079l144 273q24 44 45.5 63t46.5 19q28 0 48 -20t20 -47q0 -16 -10.5 -35t-30.5 -41l-205 -212h-58z" />
    <glyph glyph-name="quoteleft" unicode="&#x2018;" horiz-adv-x="1493" 
d="M573 1504l-46 23l-140 -23h-47q-85 0 -280 793v23q210 747 280 747h840q187 -466 187 -513q-94 -187 -94 -257t140 -350q-65 -257 -326 -257q0 -23 -514 -186z" />
    <glyph glyph-name="quoteright" unicode="&#x2019;" horiz-adv-x="1493" 
d="M900 3067l46 -23l140 23h47q85 0 280 -793v-23q-210 -747 -280 -747h-840q-187 466 -187 513q94 187 94 257t-140 350q65 257 326 257q0 23 514 186z" />
    <glyph glyph-name="quotedblleft" unicode="&#x201c;" horiz-adv-x="3387" 
d="M573 1504l-46 23l-140 -23h-47q-85 0 -280 793v23q210 747 280 747h840q187 -466 187 -513q-94 -187 -94 -257t140 -350q-65 -257 -326 -257q0 -23 -514 -186zM2467 1504l-46 23l-140 -23h-47q-85 0 -280 793v23q210 747 280 747h840q187 -466 187 -513
q-94 -187 -94 -257t140 -350q-65 -257 -326 -257q0 -23 -514 -186z" />
    <glyph glyph-name="quotedblright" unicode="&#x201d;" horiz-adv-x="3387" 
d="M900 3067l46 -23l140 23h47q85 0 280 -793v-23q-210 -747 -280 -747h-840q-187 466 -187 513q94 187 94 257t-140 350q65 257 326 257q0 23 514 186zM2794 3067l46 -23l140 23h47q85 0 280 -793v-23q-210 -747 -280 -747h-840q-187 466 -187 513q94 187 94 257t-140 350
q65 257 326 257q0 23 514 186z" />
    <glyph glyph-name="ellipsis" unicode="&#x2026;" horiz-adv-x="5417" 
d="M1304 416l40 -23q6 -51 6 -112q0 -311 -149 -883l-23 -40q-19 -6 -57 -6q-207 0 -978 173l-61 35q-22 16 -22 126q0 199 72 708q43 27 55 48l3 52q39 68 402 68h41q608 -109 671 -146zM3298 416l40 -23q5 -50 5 -110q0 -310 -148 -885l-24 -40q-19 -6 -57 -6
q-207 0 -978 173l-60 35q-23 16 -23 128q0 200 72 706q44 27 56 48l2 52q40 68 402 68h41q609 -109 672 -146zM5291 416l40 -23q6 -51 6 -113q0 -310 -148 -882l-24 -40q-19 -6 -57 -6q-207 0 -978 173l-61 35q-22 16 -22 126q0 199 72 708q43 27 56 48l2 52q39 68 402 68
h41q608 -109 671 -146z" />
    <glyph glyph-name="Euro" unicode="&#x20ac;" horiz-adv-x="3982" 
d="M1682 2660h1446q467 0 467 -280q210 -488 210 -583q-68 -53 -747 -304q-523 234 -770 234h-70q-560 -42 -560 -140q-46 -152 -46 -210h910q87 0 280 -794v-23q0 -37 -840 -327h-24q-70 117 -303 117h-93v-23q273 -327 606 -327h467q256 420 537 420q368 140 467 140h23
q63 0 257 -770v-47q-52 0 -560 -607q-181 -70 -327 -70h-1727q-887 699 -887 1051q-64 186 -187 186q-93 0 -93 187v677q0 39 303 140q177 957 327 957q743 396 934 396z" />
  </font>
</defs>
</svg>
